# xmcd
#
# Track frame offsets:
# 150
# 18404
# 38088
# 60123
# 77210
# 95794
# 120249
# 138341
# 155038
# 174110
# 193512
# 227744
# 252018
# 276280
# 289432
#
# Disc length: 4143 seconds
#
#
# Revision: 0
# Processed by: cddbd v1.5.1PL2 Copyright (c) Steve Scherf et al.
# Submitted via: FreeRIP 2.944 
#
DISCID=c5102d0f
DTITLE=Depeche Mode (Tribute) - Various Artists for the Masses
DYEAR=1900
DGENRE=Rock
TTITLE0=the smashing pumpkins/never let me down again
TTITLE1=god lives underwear/fly on the windscreen
TTITLE2=failure/enjoy the silence
TTITLE3=the cure/world in my eyes
TTITLE4=dishwalla/policy of truth
TTITLE5=veruca salt/somebody
TTITLE6=meat beat manifesto/everything counts
TTITLE7=hooverphonic/shake the disease
TTITLE8=locust/master and servant
TTITLE9=self/shame
TTITLE10=monster magnet/black celebration
TTITLE11=rabbit in the moon/waiting for the night
TTITLE12=apollo four forty/i feel you
TTITLE13=deftones/to have and to hold
TTITLE14=rammstein/stripped
EXTD=
EXTT0=
EXTT1=
EXTT2=
EXTT3=
EXTT4=
EXTT5=
EXTT6=
EXTT7=
EXTT8=
EXTT9=
EXTT10=
EXTT11=
EXTT12=
EXTT13=
EXTT14=
PLAYORDER=
